<?xml version="1.0" encoding="utf-8"?>
<!-- Generator: Adobe Illustrator 20.0.0, SVG Export Plug-In . SVG Version: 6.00 Build 0)  -->
<svg version="1.1" id="Layer_1" xmlns="http://www.w3.org/2000/svg" xmlns:xlink="http://www.w3.org/1999/xlink" x="0px" y="0px"
	 viewBox="0 0 260 230.3" style="enable-background:new 0 0 260 230.3;" xml:space="preserve">
<style type="text/css">
	.st0{fill:#FFFFFF;}
</style>
<g>
	<path class="st0" d="M259.2,227.2c-31.5-75.4-63-150.7-94.7-226.7c1.8-0.1,3.2-0.3,4.5-0.3c28.8,0,57.6,0,86.4-0.1
		c3.2,0,4.7,0.6,4.7,4.3c-0.1,73.8-0.1,147.6-0.1,221.4c0,0.4-0.1,0.9-0.1,1.3C259.6,227,259.4,227.1,259.2,227.2z"/>
	<path class="st0" d="M0,227C0,151.6,0,76.2,0,0.4c31.6,0,63.1,0,95.3,0C63.7,76.2,32.1,151.6,0.6,227.1C0.4,227.1,0.2,227.1,0,227z
		"/>
	<path class="st0" d="M88.3,183.7c14-33,27.7-65.1,41.6-98c20.4,48.5,40.5,96.2,60.9,144.5c-10.8,0-20.9,0.1-31.1,0
		c-10.5-0.1-7.6,1.8-11.4-7.6c-4.6-11.2-9.1-22.4-13.3-33.8c-1.4-3.8-3.3-5.3-7.5-5.2C114.7,183.9,101.9,183.7,88.3,183.7z"/>
</g>
</svg>
