<?xml version="1.0" encoding="utf-8"?>
<!-- Generator: Adobe Illustrator 15.0.0, SVG Export Plug-In . SVG Version: 6.00 Build 0)  -->
<!DOCTYPE svg PUBLIC "-//W3C//DTD SVG 1.1//EN" "http://www.w3.org/Graphics/SVG/1.1/DTD/svg11.dtd">
<svg version="1.1" id="Layer_1" xmlns="http://www.w3.org/2000/svg" xmlns:xlink="http://www.w3.org/1999/xlink" x="0px" y="0px"
	 width="229.974px" height="230px" viewBox="0 0 229.974 230" enable-background="new 0 0 229.974 230" xml:space="preserve">
<g>
	<path fill="#FFFFFF" d="M123.801,126.246c-9.887-1.413-19.991-1.305-30.421-1.848c0,12.494,0,23.793,0,36.504
		c10.43-0.543,20.316-0.434,30.095-1.846c8.365-1.087,12.276-7.279,12.386-16.515C135.969,133.851,131.949,127.44,123.801,126.246z"
		/>
	<path fill="#FFFFFF" d="M95.553,97.781c8.257-0.109,16.623,0.107,24.662-1.087c6.953-1.087,9.995-6.519,9.67-14.124
		c-0.326-6.736-3.911-11.19-10.647-12.277c-3.911-0.651-7.822-0.76-11.842-0.76c-14.232-0.109-14.232,0-14.45,14.232
		c0,3.477-0.217,6.844,0.109,10.213C93.271,95.391,94.684,97.781,95.553,97.781z"/>
	<path fill="#FFFFFF" d="M229.512,39.113C229.294,16.08,214.192,0.218,193.55,0.218c-52.475-0.108-104.95-0.108-157.425,0
		c-19.556,0-35.961,15.645-35.961,35.201c-0.217,53.019-0.217,106.036,0,159.056C0.272,214.682,16.243,230,36.342,230
		c26.075,0,52.149,0,78.224,0c26.075,0,52.149,0,78.225,0c2.498,0,5.105-0.107,7.496-0.651c18.252-4.02,29.226-17.709,29.334-38.351
		C229.946,140.479,229.946,89.74,229.512,39.113z M169.757,167.53c-8.039,12.712-20.968,18.035-35.092,18.687
		c-25.423,1.305-50.954,0.979-76.486,1.521c-4.02,0.108-4.128-2.281-4.128-5.215c0.108-19.339,0-38.678,0-58.125
		c0-25.314,0.108-50.629-0.108-75.942c0-4.454,1.195-5.976,5.758-5.976c21.837,0.326,43.784-0.326,65.621,0.761
		c9.344,0.435,18.904,3.259,27.487,7.062c20.316,9.127,23.901,47.261-0.326,59.429C174.755,122.117,182.251,147.648,169.757,167.53z
		"/>
</g>
</svg>
