<?xml version="1.0" encoding="utf-8"?>
<!-- Generator: Adobe Illustrator 15.0.0, SVG Export Plug-In . SVG Version: 6.00 Build 0)  -->
<!DOCTYPE svg PUBLIC "-//W3C//DTD SVG 1.1//EN" "http://www.w3.org/Graphics/SVG/1.1/DTD/svg11.dtd">
<svg version="1.1" id="Layer_1" xmlns="http://www.w3.org/2000/svg" xmlns:xlink="http://www.w3.org/1999/xlink" x="0px" y="0px"
	 width="21.667px" height="23.235px" viewBox="0 0 21.667 23.235" enable-background="new 0 0 21.667 23.235" xml:space="preserve">
<path fill="#BA453F" d="M20.04,10.987l1.558-0.366l-0.773-3.285l-1.555,0.362c-0.532-1.207-1.301-2.262-2.243-3.116l0.845-1.361
	l-2.872-1.78l-0.844,1.361c-0.93-0.367-1.929-0.579-2.954-0.624c-0.265-0.013-0.534-0.013-0.803,0c-0.011,0-0.023,0-0.032,0
	l-0.363-1.558l-3.289,0.77l0.367,1.561C6.761,3.09,6.455,3.246,6.161,3.418C5.329,3.896,4.59,4.497,3.959,5.192L2.599,4.347
	L0.82,7.216l1.359,0.845c-0.462,1.183-0.684,2.471-0.622,3.788L0,12.216l0.771,3.288l1.558-0.366c0.53,1.21,1.3,2.266,2.24,3.123
	l-0.843,1.358l2.869,1.78l0.846-1.361c1.037,0.405,2.151,0.625,3.297,0.63c0.164,0.001,0.328-0.003,0.493-0.011l0.365,1.561
	l3.286-0.773l-0.366-1.558c0.319-0.138,0.625-0.294,0.923-0.463c0.826-0.482,1.568-1.083,2.197-1.777l1.361,0.845l0-0.001L19,18.492
	l1.777-2.872l-1.358-0.842C19.88,13.593,20.102,12.307,20.04,10.987z M4.149,12.979C3.445,9.976,4.837,6.979,7.373,5.508
	C7.94,5.18,8.566,4.926,9.239,4.77c0.388-0.091,0.773-0.147,1.159-0.169c0.269-0.019,0.538-0.019,0.803,0
	c1.531,0.09,2.97,0.697,4.099,1.683h0c0.064,0.057,0.128,0.115,0.19,0.173l0,0c0.06,0.056,0.119,0.114,0.177,0.172
	c0.004,0.005,0.009,0.01,0.014,0.014c0.055,0.055,0.108,0.112,0.16,0.169c0.008,0.008,0.016,0.017,0.023,0.025
	c0.05,0.055,0.098,0.11,0.146,0.167c0.01,0.011,0.02,0.022,0.029,0.034c0.046,0.054,0.09,0.11,0.135,0.166
	c0.011,0.014,0.022,0.029,0.033,0.043c0.042,0.054,0.083,0.109,0.124,0.165c0.012,0.017,0.024,0.034,0.036,0.051
	c0.038,0.054,0.076,0.108,0.113,0.164c0.013,0.02,0.025,0.04,0.039,0.06c0.035,0.053,0.07,0.107,0.104,0.162
	c0.014,0.023,0.027,0.046,0.041,0.069c0.032,0.052,0.062,0.105,0.093,0.159c0.015,0.026,0.03,0.054,0.044,0.081
	c0.027,0.051,0.055,0.103,0.082,0.155c0.016,0.03,0.031,0.062,0.046,0.093C16.952,8.454,16.976,8.503,17,8.554
	c0.017,0.036,0.032,0.072,0.048,0.108c0.021,0.046,0.042,0.093,0.061,0.14c0.017,0.042,0.033,0.084,0.049,0.127
	c0.017,0.042,0.034,0.084,0.05,0.127c0.018,0.05,0.036,0.101,0.053,0.152c0.013,0.036,0.025,0.072,0.038,0.109
	c0.02,0.062,0.038,0.125,0.056,0.188c0.009,0.027,0.017,0.054,0.025,0.08c0.025,0.091,0.048,0.182,0.07,0.274
	c0.086,0.367,0.14,0.733,0.165,1.097c0.179,2.613-1.164,5.081-3.391,6.371c-0.212,0.124-0.434,0.232-0.662,0.333
	c-0.382,0.168-0.783,0.308-1.204,0.405c-0.017,0.004-0.034,0.007-0.05,0.011c-0.112,0.025-0.224,0.048-0.336,0.067
	c-0.037,0.006-0.075,0.012-0.112,0.018c-0.095,0.015-0.19,0.028-0.285,0.04c-0.037,0.004-0.075,0.008-0.112,0.011
	c-0.099,0.01-0.198,0.018-0.296,0.023c-0.031,0.002-0.062,0.004-0.092,0.005c-0.121,0.005-0.241,0.007-0.36,0.006
	c-0.007,0-0.015,0-0.022,0c-0.267-0.003-0.531-0.023-0.792-0.058c-0.018-0.002-0.035-0.005-0.053-0.007
	c-0.11-0.016-0.22-0.034-0.329-0.055c-0.023-0.004-0.045-0.009-0.068-0.013c-0.109-0.022-0.218-0.047-0.326-0.074
	c-0.016-0.004-0.033-0.008-0.049-0.013c-0.253-0.066-0.502-0.146-0.745-0.24c0,0-0.001,0-0.002-0.001
	c-0.116-0.045-0.23-0.093-0.344-0.145c-0.019-0.009-0.038-0.018-0.057-0.027c-0.097-0.044-0.193-0.092-0.288-0.142
	c-0.02-0.01-0.041-0.021-0.061-0.031c-0.102-0.054-0.202-0.111-0.301-0.171c-0.008-0.005-0.017-0.01-0.025-0.015
	c-0.224-0.135-0.439-0.284-0.646-0.445c-0.003-0.002-0.006-0.005-0.009-0.007C6.5,16.728,6.404,16.648,6.31,16.567
	C5.267,15.659,4.488,14.429,4.149,12.979z"/>
</svg>
