<?xml version="1.0" encoding="utf-8"?>
<!-- Generator: Adobe Illustrator 15.0.0, SVG Export Plug-In . SVG Version: 6.00 Build 0)  -->
<!DOCTYPE svg PUBLIC "-//W3C//DTD SVG 1.1//EN" "http://www.w3.org/Graphics/SVG/1.1/DTD/svg11.dtd">
<svg version="1.1" id="Layer_1" xmlns="http://www.w3.org/2000/svg" xmlns:xlink="http://www.w3.org/1999/xlink" x="0px" y="0px"
	 width="15.167px" height="15.003px" viewBox="0 0 15.167 15.003" enable-background="new 0 0 15.167 15.003" xml:space="preserve">
<g id="XMLID_489_">
	<g id="XMLID_503_">
		<g id="XMLID_504_">
			<path fill="#A64943" d="M14.596,5.943l-0.813-0.119c-0.206-0.029-0.432-0.216-0.502-0.412L12.934,4.62
				c-0.096-0.185-0.079-0.476,0.038-0.648l0.464-0.68c0.116-0.172,0.105-0.446-0.025-0.606l-0.447-0.501
				c-0.146-0.149-0.415-0.191-0.6-0.095l-0.73,0.381c-0.183,0.097-0.472,0.076-0.642-0.047c0,0-0.128-0.093-0.365-0.233
				c-0.235-0.137-0.382-0.204-0.382-0.204c-0.188-0.087-0.347-0.328-0.354-0.535L9.865,0.627C9.86,0.42,9.689,0.205,9.49,0.152
				L8.833,0.005C8.628-0.029,8.384,0.097,8.292,0.283L7.926,1.018C7.833,1.205,7.588,1.362,7.379,1.369L6.52,1.455
				C6.314,1.49,6.041,1.382,5.915,1.22L5.413,0.569c-0.128-0.166-0.391-0.24-0.584-0.166l-0.617,0.27
				c-0.187,0.092-0.312,0.336-0.277,0.54l0.135,0.811C4.104,2.23,3.998,2.501,3.833,2.629L3.187,3.205
				C3.042,3.354,2.758,3.427,2.559,3.368L1.771,3.14C1.571,3.079,1.31,3.173,1.192,3.344c0,0-0.056,0.08-0.177,0.287
				c-0.122,0.21-0.165,0.296-0.165,0.296c-0.09,0.187-0.043,0.459,0.105,0.605l0.585,0.573c0.149,0.146,0.223,0.427,0.165,0.629
				L1.521,6.581C1.49,6.786,1.306,7.011,1.109,7.082L0.336,7.36C0.141,7.431-0.01,7.658,0,7.865l0.066,0.671
				c0.032,0.208,0.225,0.4,0.43,0.431l0.812,0.12c0.207,0.03,0.431,0.214,0.503,0.41l0.346,0.792
				c0.096,0.186,0.079,0.478-0.038,0.649l-0.462,0.679c-0.118,0.171-0.107,0.445,0.024,0.607l0.446,0.5
				c0.146,0.149,0.417,0.192,0.6,0.096l0.729-0.381c0.184-0.097,0.473-0.075,0.64,0.046c0,0,0.131,0.095,0.368,0.233
				c0.236,0.139,0.383,0.207,0.383,0.207c0.19,0.086,0.349,0.327,0.354,0.536l0.025,0.822c0.006,0.209,0.175,0.422,0.376,0.476
				l0.656,0.144c0.205,0.035,0.447-0.089,0.541-0.276l0.366-0.735c0.092-0.186,0.338-0.345,0.545-0.353l0.861-0.084
				c0.206-0.035,0.477,0.072,0.604,0.236l0.502,0.65c0.128,0.165,0.391,0.238,0.586,0.165l0.619-0.271
				c0.185-0.094,0.308-0.336,0.275-0.54l-0.137-0.811c-0.034-0.204,0.073-0.477,0.238-0.604l0.646-0.577
				c0.147-0.148,0.429-0.222,0.628-0.164l0.787,0.229c0.2,0.059,0.461-0.034,0.58-0.206c0,0,0.054-0.079,0.176-0.286
				c0.121-0.208,0.164-0.296,0.164-0.296c0.091-0.187,0.045-0.459-0.104-0.605l-0.584-0.574c-0.149-0.146-0.224-0.427-0.167-0.627
				l0.187-0.847c0.029-0.206,0.214-0.431,0.41-0.501l0.775-0.278c0.195-0.071,0.347-0.299,0.335-0.505l-0.067-0.671
				C14.994,6.167,14.8,5.975,14.596,5.943z M11.234,9.612c-1.194,2.038-3.81,2.719-5.845,1.528C3.353,9.949,2.667,7.333,3.859,5.296
				c1.192-2.036,3.809-2.721,5.846-1.53C11.741,4.958,12.425,7.577,11.234,9.612z"/>
		</g>
	</g>
	<g id="XMLID_499_">
		<g id="XMLID_500_">
			<path fill="#A64943" d="M9.085,4.83C7.63,3.977,5.768,4.465,4.919,5.915C4.067,7.369,4.555,9.232,6.01,10.083
				c1.449,0.851,3.315,0.367,4.169-1.089C11.028,7.542,10.536,5.679,9.085,4.83z M8.492,8.007C8.187,8.528,7.515,8.708,6.994,8.402
				C6.466,8.094,6.295,7.421,6.601,6.897c0.304-0.521,0.972-0.696,1.5-0.386C8.624,6.815,8.798,7.483,8.492,8.007z"/>
		</g>
	</g>
</g>
</svg>
