<?xml version="1.0" encoding="utf-8"?>
<!-- Generator: Adobe Illustrator 20.0.0, SVG Export Plug-In . SVG Version: 6.00 Build 0)  -->
<svg version="1.1" id="Layer_1" xmlns="http://www.w3.org/2000/svg" xmlns:xlink="http://www.w3.org/1999/xlink" x="0px" y="0px"
	 viewBox="0 0 226.1 222.9" style="enable-background:new 0 0 226.1 222.9;" xml:space="preserve">
<g>
	<path style="fill:#3D3D3D;" d="M0,198c0,3.1,2.5,5.6,5.5,5.6h215.2c3,0,5.5-2.5,5.5-5.6v-5.6H0V198z"/>
</g>
<path style="fill:#686868;stroke:#686868;stroke-miterlimit:10;" d="M215.7,73.7v118.7H10.5V73.7c0-6.6,5.2-12,11.7-12H204
	C210.4,61.7,215.7,67.1,215.7,73.7z"/>
<path style="fill:#CCCBC9;stroke:#CCCBC9;stroke-miterlimit:10;" d="M20.7,73.1h184.8v110.1H20.7V73.1z"/>
<path id="XMLID_128_" style="fill:#E5463E;stroke:#E5463E;stroke-miterlimit:10;" d="M156.1,208v14.4l-98.6,0.1v-14.4L156.1,208z"/>
<path id="XMLID_127_" style="fill:#FF9292;stroke:#FF9292;stroke-miterlimit:10;" d="M57.5,212.7v5.1l99.1-0.1v-5.1L57.5,212.7z"/>
<path id="XMLID_126_" style="fill:#EAEAEA;stroke:#EAEAEA;stroke-miterlimit:10;" d="M156.9,208c0.2,0,11.6,7.1,11.6,7.1
	s-11.3,7.2-11.6,7.2c-0.7,0-1.2-1.1-1.2-2.4c0-1.2,0.5-2.2,1.1-2.4c-0.6-0.1-1.1-1.1-1.1-2.4c0-1.2,0.5-2.2,1.1-2.4
	c-0.6-0.2-1.1-1.1-1.1-2.4C155.6,209.1,156.2,208,156.9,208z"/>
<path id="XMLID_125_" style="fill:#262626;" d="M163.8,211.6l5.6,3.5l-5.5,3.5L163.8,211.6z"/>
<g>
	<g>
		<path style="fill:#F2F2F2;" d="M182.5,1H96.9v182.6h109.2V25.1C206.1,11.9,195.6,1,182.5,1z"/>
	</g>
	<g>
		<path style="fill:#CCCBC9;" d="M154.7,23.5c0.6,10,8.1,18,17.8,19.6c0.1,0,0.2,0,0.3,0c8.3-1.2,14.6-8.4,14.6-16.9
			c0-0.9-0.1-1.9-0.2-2.7C187.2,23.5,154.7,23.5,154.7,23.5z"/>
	</g>
	<g style="opacity:0.2;">
		<path style="fill:#CCCBC9;" d="M161.2,23.5h-6.5c0.6,10,8.1,18,17.8,19.6c0.1,0,0.2,0,0.3,0c1.8-0.3,3.6-0.8,5.2-1.6
			C169.1,39.7,162.4,32.5,161.2,23.5z"/>
	</g>
	<g>
		<g>
			<path style="fill:#FFFFFF;" d="M176,1H99.6l0,0c-0.3,0-0.7,0-1,0c-11.8,0-21.3,9.5-21.3,21.2c0,10.7,8,19.5,18.3,21l0,0h77.1
				c-10.2-1.5-18.1-10.4-18.1-20.9C154.7,10.5,164.2,1,176,1z"/>
		</g>
	</g>
</g>
<g>
	<g>
		<g>
			<path style="fill:#333333;" d="M147,135.9h7.1v-0.7v-6.4H147V135.9z M153.4,134.5v0.7V134.5z M148.4,130.2h4.3v4.3h-4.3V130.2z"
				/>
		</g>
	</g>
	<g>
		<g>
			<path style="fill:#333333;" d="M118.3,154.1h7.1v-0.7V147h-7.1V154.1z M124.8,152.7v0.7V152.7z M119.8,148.4h4.3v4.3h-4.3V148.4z
				"/>
		</g>
	</g>
	<g>
		<g>
			<path style="fill:#333333;" d="M176.2,154.5h7.1v-0.7v-6.4h-7.1V154.5z M182.6,153v0.7V153z M177.6,148.8h4.3v4.3h-4.3V148.8z"/>
		</g>
	</g>
	<path style="fill:#333333;" d="M118.1,131.7h29.6v1.4h-29.6V131.7z"/>
	<g>
		<g>
			<path style="fill:#333333;" d="M115.6,128.1c-2,0-3.6,1.6-3.6,3.6s1.6,3.6,3.6,3.6s3.6-1.6,3.6-3.6
				C119.2,129.7,117.6,128.1,115.6,128.1z M115.6,133.8c-1.2,0-2.1-1-2.1-2.1c0-1.2,1-2.1,2.1-2.1c1.2,0,2.1,1,2.1,2.1
				S116.8,133.8,115.6,133.8z"/>
		</g>
	</g>
	<path style="fill:#333333;" d="M153.4,131.7H183v1.4h-29.6V131.7z"/>
	<g>
		<path style="fill:#333333;" d="M185.4,128.1c-2,0-3.6,1.6-3.6,3.6s1.6,3.6,3.6,3.6s3.6-1.6,3.6-3.6
			C189,129.7,187.4,128.1,185.4,128.1z M185.4,133.8c-1.2,0-2.1-1-2.1-2.1c0-1.2,1-2.1,2.1-2.1c1.2,0,2.1,1,2.1,2.1
			C187.6,132.8,186.6,133.8,185.4,133.8z"/>
	</g>
	<g>
		<g>
			<path style="fill:#333333;" d="M153.4,131.8l-0.1,1.4c10,1.1,21.7,6.2,25.8,14.8l1.3-0.6C175.9,138.1,163.8,133,153.4,131.8z"/>
		</g>
	</g>
</g>
<g>
	<g>
		<path style="fill:#333333;" d="M121,147.2l1.3,0.5c3.3-8.1,15.3-13.5,25.4-14.5l-0.1-1.4C137.2,132.9,124.8,138.2,121,147.2z"/>
	</g>
</g>
<g>
	<path style="fill:#E5463E;stroke:#E5463E;stroke-miterlimit:10;" d="M50.8,13.1c-4.1-4.1-10.7-4.1-14.7,0L34.2,15
		c-4.1,4.1-4.1,10.7,0,14.7l79.4,79.4c1.3,1.3,2.7,2.1,4.3,2.6l1.5,1.5l1.1-1.1c2.8,0.2,5.7-0.9,7.9-3l1.8-1.8
		c4.1-4.1,4.1-10.7,0-14.7L50.8,13.1z"/>
</g>
<g>
	<g>
		<g>
			<path style="fill:#333333;" d="M129.5,91.1l-17.5,17.5c-1.2,1.2-1.2,3.2,0,4.3c1.2,1.2,3.2,1.2,4.3,0l17.5-17.5
				c1.2-1.2,1.2-3.2,0-4.3C132.7,89.9,130.8,89.9,129.5,91.1z"/>
		</g>
	</g>
	<path style="fill:#333333;" d="M133.3,112.6c-1.1,0.7-2.5,0.6-3.4-0.3c-1.1-1.1-1.1-2.8,0-3.8c1.1-1.1,2.8-1.1,3.8,0
		c1,1,1,2.5,0.2,3.6l16.2,16.1c-0.2-4.4-1.1-20.4-5.2-26c-4.9-6.6-15.6-6.2-15.6-6.2l-12.4,12.4c0,0-0.3,9.1,5.3,14.8
		c5.4,5.4,25.9,6.1,27.8,6.2L133.3,112.6z"/>
</g>
</svg>
