<?xml version="1.0" encoding="utf-8"?>
<!-- Generator: Adobe Illustrator 20.0.0, SVG Export Plug-In . SVG Version: 6.00 Build 0)  -->
<svg version="1.1" id="Layer_1" xmlns="http://www.w3.org/2000/svg" xmlns:xlink="http://www.w3.org/1999/xlink" x="0px" y="0px"
	 viewBox="0 0 551.7 230" style="enable-background:new 0 0 551.7 230;" xml:space="preserve">
<style type="text/css">
	.st0{fill:#FFFFFF;}
</style>
<path class="st0" d="M73.2,36.3c8,8.1,15.7,15.9,23.3,23.9c0.8,0.9,1.1,2.8,0.8,4.1c-1.4,8.3,1.3,14.7,8,19.8
	c1.2,0.9,2.3,2.8,2.4,4.2c0.2,18.8,0.1,37.6,0.2,56.4c0,2.7-1.4,3.8-3.2,5.1c-5.9,4.4-8.7,10.5-7.4,17.8c1.3,7.4,5.8,12.5,13.1,14.5
	c7.2,2,13.4-0.1,18.5-5.4c7.3-7.7,6-19.6-2.6-26.8c-1.2-1-2.4-2.8-2.4-4.3c-0.2-18.3-0.1-36.6-0.1-54.8c0-0.5,0.2-1,0.4-2.2
	c1.4,1.1,2.5,1.7,3.4,2.6c5.2,5.1,10.2,10.4,15.5,15.4c2.2,2.1,3.1,4,2.5,7.3c-1.6,8.6,3.2,16.6,11.1,19.7c7.9,3.2,17.1,0.2,22-7
	c4.6-6.9,4-16.1-1.9-22.3c-4.4-4.6-9.8-6.7-16.3-5.9c-1.5,0.2-3.6-0.3-4.7-1.3c-7.1-6.8-14.1-13.8-20.9-20.8c-1-1-1.7-2.9-1.5-4.3
	c1.9-12.5-7.9-23.1-20.4-21.5c-2.5,0.3-4-0.2-5.7-1.9c-6.9-7-13.9-14-20.9-20.9c-1.7-1.6-2.2-2.8-0.2-4.7c6.1-5.9,11.9-12,18-17.8
	c6.4-6.1,14.9-6,21.2,0.3c25.8,25.7,51.5,51.5,77.3,77.3c7.1,7.1,14.3,14.2,21.4,21.4c7.1,7.2,7.2,15.4,0,22.6
	c-29.5,29.6-59.1,59.1-88.6,88.7c-3.4,3.4-6.8,6.9-10.3,10.3c-5.9,5.7-14.5,5.6-20.3-0.2C71.4,192.2,38,158.9,4.7,125.5
	c-6.6-6.6-6.2-14.9,0.9-22c14-14,28-28,42-42c7.7-7.7,15.4-15.3,23.1-23C71.3,37.9,72,37.4,73.2,36.3z"/>
<path class="st0" d="M284.9,174.7c-2-2.6-4.4-5-6-7.9c-3.4-6.2-2.7-12.5,1.7-17.9c4-4.8,8.6-9.1,13-13.5c1-1,2.3-1.6,3.6-2.5
	c-21-15.4-25.4-41.5-10.8-60c7.3-9.3,17.5-13.5,28.8-15.2c10.7-1.7,21.4-1.5,32,0.8c1.6,0.3,3.3,0.4,4.9,0.4c11.6,0,23.3,0,34.9,0
	c1.4,0,2.7,0,4.3,0c0,6.3,0,12.1,0,18.4c-6.4,0.6-12.8,1.1-18.7,1.7c2.1,5.6,4.9,10.8,6.1,16.4c3.4,16.2-4.7,31.8-19.7,39
	c-13.1,6.2-26.9,6.7-40.8,4.2c-2.3-0.4-3.5,0-4.6,2c-1.6,2.9-3.4,5.6-5.6,9.1c7.3,0.5,14,0.8,20.7,1.4c12.2,1.1,24.4,2.5,36.6,3.7
	c1.1,0.1,2.2,0.5,3.4,0.8c15.6,4.1,22.7,14.3,21.3,30.3c-1.4,16.6-11,28-28.9,33.2c-21.5,6.2-43.2,5.6-64.8,0.6
	c-2.7-0.6-5.4-1.7-7.9-2.9c-14.9-7.2-18.5-24.1-7.9-36.9c1.8-2.1,3.8-4.1,5.7-6.1C285.7,174.1,285.3,174.4,284.9,174.7z M350.5,97.6
	c-0.2-12.3-7.7-19.5-20.3-19.4c-13.4,0.1-21.1,7.7-21,20.5c0.1,11.8,7.8,18.5,20.8,18.2C342.6,116.8,350.7,109.1,350.5,97.6z
	 M327.9,203.1c0-0.2,0-0.5,0.1-0.7c2.6,0,5.2,0.4,7.6-0.1c5.7-1.1,11.5-2.2,16.9-4.3c3.9-1.5,5.5-6.1,4.7-9.6
	c-0.9-3.9-4.1-4.9-7.4-5.7c-0.9-0.2-1.8-0.3-2.6-0.4c-12.9-1-25.7-1.9-38.6-2.8c-1-0.1-2.5,0.2-3.1,0.9c-3,3.5-5.8,7.3-4.8,12.4
	c1,5,5.1,7,9.4,7.9C315.9,201.9,321.9,202.4,327.9,203.1z"/>
<path class="st0" d="M462.8,76.2c0-6.7,0-12.9,0-19.2c2.9-0.7,5.7-1.2,8.3-2c8.7-2.6,14.6-8.4,17.3-17c1.5-4.6,2.1-9.5,3.3-14.1
	c0.3-1.1,1.4-2.8,2.1-2.8c6.2-0.2,12.4-0.1,19-0.1c0,9.8,0,19.1,0,28.4c0,5,0,5,5.1,5c9.1,0,18.1,0,27.4,0c0,7.3,0,14.3,0,21.7
	c-10.7,0-21.3,0-32.3,0c-0.1,1.8-0.2,3.2-0.2,4.5c0,16.4,0,32.7,0,49.1c0,13.8,4.5,18.1,18.1,17c4.8-0.4,9.5-1.6,14.8-2.6
	c0.9,2.7,1.9,5.9,2.9,9c1,3,1.9,6.1,3.1,10c-6,2-11.9,4.3-17.9,6c-8.8,2.4-17.8,3-27,2c-16.5-1.8-26-11-26.6-27.7
	c-0.6-17.5-0.3-35-0.4-52.5c0-3.8-0.1-7.7,0-11.5c0-2.3-0.9-3.2-3.2-3.2C472.1,76.3,467.5,76.2,462.8,76.2z"/>
<path class="st0" d="M449.8,56.8c0,2.2,0,3.7,0,5.2c0,28.1,0,56.2,0,84.3c0,5.5,0.2,5.7,5.6,6.4c9,1.2,9,1.2,9,10.3c0,2.5,0,5,0,7.8
	c-20.9,0-41.5,0-62.6,0c0-5.1-0.1-10.1,0.1-15.2c0-0.7,1.6-1.8,2.5-2c2.7-0.6,5.6-0.8,8.3-1.2c2.6-0.3,3.8-1.6,3.8-4.3
	c0-21.6,0-43.2,0-64.8c0-2.7-1.1-4.3-3.7-5.1c-3.6-1.2-7.2-2.5-11-3.9c0.7-5.3,1.3-10.3,2.1-15.3c0.1-0.8,1.2-2.2,1.9-2.2
	C420.5,56.8,434.9,56.8,449.8,56.8z"/>
<path class="st0" d="M410.6,19.1c0-12.4,7-19.1,19.8-19.1c12.9,0,19.9,6.9,19.9,19.5c-0.1,12.4-7.5,19.6-20,19.5
	C417.6,38.9,410.6,31.8,410.6,19.1z"/>
</svg>
