<?xml version="1.0" encoding="utf-8"?>
<!-- Generator: Adobe Illustrator 15.0.0, SVG Export Plug-In . SVG Version: 6.00 Build 0)  -->
<!DOCTYPE svg PUBLIC "-//W3C//DTD SVG 1.1//EN" "http://www.w3.org/Graphics/SVG/1.1/DTD/svg11.dtd">
<svg version="1.1" id="Layer_1" xmlns="http://www.w3.org/2000/svg" xmlns:xlink="http://www.w3.org/1999/xlink" x="0px" y="0px"
	 width="173.148px" height="230px" viewBox="0 0 173.148 230" enable-background="new 0 0 173.148 230" xml:space="preserve">
<g>
	<path fill="#FFFFFF" d="M146.886,161.566c4.894-3.135,7.952-8.182,11.394-18.658c4.357,3.9,6.957,8.641,8.41,14.07
		c2.141,8.334,1.683,16.592-1.605,24.621c-3.059,7.646-8.869,12.691-16.287,16.133c-1.605,0.766-3.287,2.141-4.129,3.67
		c-6.117,10.553-14.91,17.281-27.145,19.498c-1.299,0.23-2.676,0.766-3.746,1.453c-15.369,10.094-39.378,10.17-54.671,0.076
		c-1.223-0.764-2.676-1.299-4.129-1.605c-12.004-2.217-20.645-8.869-26.762-19.115c-0.994-1.682-2.83-3.365-4.588-4.129
		c-23.78-10.018-22.939-43.201-9.176-54.518c1.912,7.264,5.123,13.686,11.546,19.115c0.382-3.518,0.917-6.5,1.071-9.482
		c0.382-6.039,0.765-12.156,0.688-18.197c-0.077-6.117-2.6-10.934-8.411-13.916c-4.435-2.217-8.716-4.817-12.616-7.799
		c-9.099-6.729-8.946-18.734,0.306-24.621c2.447-1.529,3.823-3.67,3.976-6.5c0.382-5.887,1.605-11.852-2.6-17.127
		c-1.3-1.605-1.988-3.899-2.6-5.964c-2.523-8.64,2.064-15.751,11.164-16.898c3.288-0.382,4.282-1.758,4.588-4.587
		c0.535-4.588-0.382-8.488-4.511-11.087c-2.218-1.376-4.588-2.676-7.111-3.594c-2.37-0.841-4.894-1.223-7.646-1.912
		c4.435-6.652,10.857-9.864,18.351-11.24c11.546-2.064,21.486,1.529,30.126,9.099c2.6,2.293,4.817,4.97,7.264,7.34
		c0.917,0.841,2.141,1.376,3.211,1.988c0.535-1.147,1.376-2.217,1.529-3.364c0.994-6.729,3.976-12.387,9.175-16.822
		c0.841-0.688,1.835-1.147,2.753-1.682c0.917,4.129,1.758,7.875,2.6,11.699c0.459,0.077,0.917,0.153,1.376,0.229
		C80.517,8.258,86.863,3.211,95.809,0c-0.918,5.658-1.223,10.857,1.453,16.057c4.588-2.906,8.641-6.729,14.299-6.423
		c-1.225,4.435-2.523,8.64-3.518,12.922c-0.535,2.371-0.076,4.817,3.135,4.894c1.223,0,2.752-0.917,3.594-1.835
		c6.423-7.417,13.61-13.687,23.627-16.057c12.463-2.982,25.309,1.224,31.961,10.705c-3.594,1.147-7.264,1.912-10.704,3.441
		c-7.341,3.211-9.558,7.646-7.876,15.063c0.229,0.994,1.605,2.447,2.523,2.523c10.781,0.688,18.198,9.864,10.398,22.633
		c-3.67,5.964-3.822,11.852-2.6,18.045c0.383,2.141,1.836,4.664,3.594,5.811c9.252,6.041,9.559,18.275,0.076,25.156
		c-3.898,2.83-8.104,5.352-12.387,7.495c-5.275,2.676-8.182,7.033-8.182,12.615c0,8.947,0.842,17.816,1.301,26.762
		C146.428,160.496,146.657,161.031,146.886,161.566z M156.597,63.234c0.229,0.077,0.535,0.153,0.765,0.153
		c0.918-1.911,2.141-3.747,2.829-5.811c1.835-5.123,0.076-8.717-5.353-9.175c-4.971-0.382-10.17,0.153-15.062,1.223
		c-11.929,2.676-21.562,9.711-31.273,16.669c-0.994,0.688-2.064,1.3-3.135,1.988c5.199-10.476,13.457-17.51,23.474-22.786
		c-13.151-17.739-75.24-17.586-84.874,0c12.54,6.576,22.633,17.816,23.474,22.939c-0.382-0.153-0.688-0.229-0.994-0.459
		c-1.147-0.765-2.217-1.605-3.364-2.447C52.99,58.417,42.744,51.23,30.051,49.012c-4.435-0.765-9.176-0.611-13.687-0.306
		c-2.523,0.153-4.358,2.064-4.435,4.894c-0.153,3.9,1.682,6.882,4.129,10.476c0.382-1.759,0.535-2.829,0.841-4.206
		c5.2,12.463,1.759,31.121-4.97,37.62c0.076-1.529,0.153-2.829,0.306-4.281c-4.97,3.363-5.582,10.016-0.917,13.916
		c3.823,3.211,8.334,5.734,12.769,8.258c6.805,3.823,10.323,9.557,10.246,17.127c-0.076,10.17-0.688,20.34-1.223,30.51
		c-0.077,2.064,0.458,3.287,2.6,3.67c3.747,0.611,7.493,1.223,11.24,1.91c2.829,0.535,4.129-0.84,5.123-3.363
		c3.365-8.488,6.958-16.975,10.552-25.387c0.458-0.994,1.07-1.986,1.605-2.904c0.459,0.152,0.994,0.383,1.453,0.535
		c-3.288,12.387-6.652,24.773-9.94,37.084c20.492,0,40.984,0,61.705,0c-1.988-6.576-4.053-12.77-5.734-19.039
		c-1.605-6.193-2.829-12.463-4.205-18.656c0.382-0.078,0.764-0.154,1.07-0.307c0.535,1.07,1.223,2.141,1.682,3.287
		c3.518,8.488,7.111,16.898,10.553,25.387c0.994,2.447,2.293,3.822,5.123,3.363c3.44-0.611,6.805-1.07,10.246-1.605
		c3.135-0.459,3.67-2.369,3.44-5.123c-0.612-7.646-0.688-15.291-1.453-22.938c-1.147-12.617,3.594-21.486,15.675-26.458
		c3.135-1.299,5.965-3.594,8.334-6.04c4.053-4.206,2.982-10.628-1.758-12.846c0.076,1.3,0.152,2.523,0.306,4.282
		c-7.493-8.258-9.711-27.527-4.741-37.696C156.215,61.323,156.444,62.241,156.597,63.234z M86.251,181.293
		c-9.023,0-18.045,0-27.145,0c-1.988,0-3.976,0.23-5.811,0.611c-5.505,1.225-7.646,4.436-6.117,9.865
		c7.035,25.232,26.303,36.014,51.537,29.742c13.916-3.439,21.256-13.916,25.844-26.607c3.288-9.023,0.229-13.381-9.404-13.688
		c-0.918,0-1.836,0-2.754,0C103.608,181.293,94.968,181.293,86.251,181.293z M131.594,194.521
		c8.793,1.453,21.256-4.359,26.073-12.463c4.894-8.258,5.046-17.129,2.218-26.227c-6.5,14.68-19.574,18.197-34.484,19.803
		C130.6,181.369,134.729,186.951,131.594,194.521z M46.796,175.559c-14.604-1.453-27.526-5.199-34.102-19.805
		c-2.523,10.17-2.829,19.881,3.899,28.445c6.117,7.646,14.604,10.475,23.627,10.781c0.229-3.9-0.229-7.34,0.765-10.322
		C42.056,181.523,44.579,178.924,46.796,175.559z M15.982,18.122c6.576,1.3,12.693,1.453,17.739,3.823
		c5.123,2.37,9.176,6.958,13.993,10.781c0.536-0.306,1.912-0.918,3.211-1.606C43.126,17.663,28.751,12.234,15.982,18.122z
		 M121.654,30.967c0.917,0.535,1.605,0.917,2.294,1.3c0.688,0.306,1.453,0.535,2.141,0.765c6.27-8.946,14.223-14.452,25.691-13.61
		c1.3,0.076,2.753-0.841,4.817-1.606C142.911,12.54,129.071,17.969,121.654,30.967z M145.816,25.385
		c-5.735,0.994-9.252,4.435-11.47,9.481c-0.688,1.606-1.529,3.059,0.307,4.588c1.758,1.453,3.059,4.282,5.887,2.523
		c1.453-0.918,2.83-2.6,3.212-4.206C144.668,33.796,145.127,29.667,145.816,25.385z M26.687,25.385
		c0.611,3.059,1.147,5.735,1.682,8.411c0.382,1.912,0.458,3.823,0.994,5.735c0.765,2.829,3.365,2.905,5.659,2.829
		c1.682-0.077,4.511-4.665,4.052-5.964C36.78,30.662,33.263,26.456,26.687,25.385z M47.408,211.955
		c-2.523-9.1-4.053-10.398-11.546-9.635C40.144,205.914,43.814,208.973,47.408,211.955z M125.094,210.885
		c0.229,0.229,0.459,0.535,0.688,0.764c3.44-2.904,6.882-5.887,10.322-8.793C128.917,201.785,127.312,203.162,125.094,210.885z"/>
	<path fill="#FFFFFF" d="M147.957,77.916c-1.224,0.459-2.522,0.918-4.129,1.529c3.136,4.512,2.982,8.945-0.229,13.84
		c-0.611-1.836-0.994-3.135-1.529-4.741c-6.193,17.511-16.516,23.169-30.967,16.822c-3.059,4.052-1.147,8.487-0.611,13.687
		c-3.518-3.747-5.43-7.264-6.117-11.317c-0.383-1.988-1.07-2.906-2.982-3.441c-3.747-1.146-6.347-3.594-6.882-7.951
		c0.765,0,1.376-0.076,1.835,0c5.965,1.146,10.781-0.612,14.91-5.199c6.5-7.341,14.451-12.617,24.315-14.223
		c3.976-0.611,8.182-0.076,12.233-0.076C147.88,77.151,147.957,77.533,147.957,77.916z M112.631,100.472
		c5.964,3.594,12.998,3.135,17.51-0.766c3.594-3.135,4.816-10.322,2.523-15.521C125.094,88.467,117.983,93.208,112.631,100.472z"/>
	<path fill="#FFFFFF" d="M28.904,79.521c-1.606-0.611-2.753-1.07-4.817-1.835c4.741-1.759,8.793-1.529,12.693-0.841
		c9.252,1.529,17.051,6.04,23.168,12.846c4.894,5.429,10.169,8.487,17.586,6.27c0.229,3.977-1.759,6.882-6.041,8.182
		c-2.218,0.688-2.829,1.759-3.441,3.899c-1.07,3.747-3.135,7.188-5.353,10.552c-0.153-4.511,1.759-9.023-1.3-13.381
		c-6.576,3.9-13.228,3.211-19.804,0c-6.729-3.287-9.481-9.252-10.934-16.822c-0.688,1.988-1.147,3.136-1.759,4.818
		C25.922,88.467,25.463,84.185,28.904,79.521z M40.068,84.109c-2.523,4.894-1.147,12.54,2.6,15.675
		c4.741,3.899,12.311,4.206,17.281,0.459C54.672,93.285,47.638,88.467,40.068,84.109z"/>
	<path fill="#FFFFFF" d="M98.026,76.539c-8.027,9.252-14.451,11.164-24.238-0.764C82.352,80.363,90.227,80.363,98.026,76.539z"/>
	<path fill="#FFFFFF" d="M64.995,187.869c2.676,0,5.353-0.152,7.952,0.076c3.288,0.307,4.511,2.371,2.982,5.199
		c-1.376,2.6-3.135,5.047-5.046,7.342c-2.906,3.287-7.111,3.975-10.476,1.146c-2.6-2.141-4.817-4.895-6.576-7.799
		c-1.988-3.441-0.458-5.736,3.518-5.965C59.948,187.717,62.471,187.793,64.995,187.869
		C64.995,187.793,64.995,187.793,64.995,187.869z"/>
	<path fill="#FFFFFF" d="M107.814,187.869c2.677,0,5.353-0.152,7.952,0.076c3.364,0.307,4.664,2.447,3.287,5.43
		c-1.987,4.205-4.511,8.334-9.404,9.252c-2.217,0.459-5.429-0.307-7.188-1.76c-2.447-2.064-4.205-5.123-5.734-7.951
		c-1.529-2.754-0.307-4.74,2.828-5.047C102.232,187.641,105.061,187.869,107.814,187.869z"/>
</g>
</svg>
