<?xml version="1.0" encoding="utf-8"?>
<!-- Generator: Adobe Illustrator 15.0.0, SVG Export Plug-In . SVG Version: 6.00 Build 0)  -->
<!DOCTYPE svg PUBLIC "-//W3C//DTD SVG 1.1//EN" "http://www.w3.org/Graphics/SVG/1.1/DTD/svg11.dtd">
<svg version="1.1" id="Layer_1" xmlns="http://www.w3.org/2000/svg" xmlns:xlink="http://www.w3.org/1999/xlink" x="0px" y="0px"
	 width="365.434px" height="230px" viewBox="0 0 365.434 230" enable-background="new 0 0 365.434 230" xml:space="preserve">
<path fill-rule="evenodd" clip-rule="evenodd" fill="#FFFFFF" d="M197.188,38.845c4.866,57.488,10.246,114.459,15.167,171.893
	c17.446,4.514,34.429,9.837,51.188,14.534c5.617,1.573,12.824,4.424,17.695,4.424c4.857,0,11.457-2.893,17.062-4.424
	c17.725-4.842,34.447-10.053,51.82-14.534c4.989-57.366,10.377-114.33,15.168-171.893C309.256,38.845,253.222,38.845,197.188,38.845
	z M324.842,180.404c-14.221,3.894-28.779,7.45-42.34,12.007c-14.895-4.276-30.195-8.143-44.869-12.64
	c-0.258-11.538-1.982-21.611-2.527-32.861c7.162,0,14.324,0,21.486,0c0.115,5.783,0.973,10.825,1.264,16.431
	c7.777,1.005,14.911,6.311,22.751,6.319c8.187,0.011,15.806-5.528,24.015-6.319c0.287-7.646,1.65-16.494,1.895-25.909
	c-15.635-1.006-32.051-1.232-48.66-1.266c-0.395-7.189-1.042-14.125-1.896-20.854c18.098,0.402,34.3-1.091,52.453-0.632
	c1.83-5.753,1.18-13.988,2.527-20.223c-25.492-1.471-53.713-0.213-80.258-0.631c-1.613-6.392-1.078-14.932-2.528-21.487
	c35.39,0,70.779,0,106.169,0C331.615,108.813,328.11,144.489,324.842,180.404z"/>
<g>
	<path fill-rule="evenodd" clip-rule="evenodd" fill="#FFFFFF" d="M232.536,0.062c8.636,0,17.272,0,25.909,0
		c0,2.949,0,5.899,0,8.848c-4.846,0-9.689,0-14.533,0c-1.377,3.26-0.285,8.984-0.633,13.271c3.871,1.396,10.264,0.269,15.166,0.632
		c0,3.16,0,6.32,0,9.479c-8.447-0.4-18.508,0.813-25.909-0.632C232.536,21.128,232.536,10.595,232.536,0.062z"/>
	<path fill-rule="evenodd" clip-rule="evenodd" fill="#FFFFFF" d="M264.133,0.062c9.901,0,19.802,0,29.703,0
		c0,2.949,0,5.899,0,8.848c-4.424,0-8.848,0-13.271,0c2.216,7.073,16.61,10.744,13.271,23.382c-9.691,0-19.381,0-29.07,0
		c-1.271-1.889-0.356-5.962-0.633-8.847c2.596-0.318,9.346,0.219,13.904,0C274.621,14.432,262.994,13.629,264.133,0.062z"/>
	<path fill-rule="evenodd" clip-rule="evenodd" fill="#FFFFFF" d="M299.523,0.062c9.9,0,19.801,0,29.702,0
		c-0.276,2.886,0.639,6.959-0.632,8.848c-4.214,0-8.427,0-12.64,0c2.396,7.296,15.133,9.723,13.903,22.75
		c-8.66,1.453-19.996,0.228-29.701,0.632c-1.271-1.889-0.358-5.962-0.633-8.847c4.634,0,9.27,0,13.903,0
		C310.01,14.432,298.385,13.629,299.523,0.062z"/>
</g>
<g>
	<path fill-rule="evenodd" clip-rule="evenodd" fill="#FFFFFF" d="M0,38.977C4.822,96.51,10.183,153.5,15.167,210.87
		c17.23,5.144,34.54,8.926,51.82,13.903c5.761,1.659,11.985,5.11,17.062,5.056c4.972-0.052,11.268-3.394,17.063-5.056
		c18.376-5.271,35.1-8.63,51.821-14.535c4.674-57.467,9.936-114.349,15.166-171.261C112.068,38.977,56.034,38.977,0,38.977z
		 M135.239,95.222c-26.963,0-53.927,0-80.891,0c0.302,7.493,1.353,14.235,1.896,21.487c25.091,0.049,56.132-0.069,77.1,0
		c-1.898,21.694-4.027,43.159-5.688,65.092c-10.842,3.536-20.976,5.311-32.862,8.846c-3.297,0.982-6.982,3.139-10.112,3.161
		c-6.59,0.046-15.425-4.425-22.118-6.319c-7.567-2.141-14.864-3.304-22.119-5.688c-1.079-11.14-1.846-22.59-3.16-33.495
		c7.164,0,14.325,0,21.487,0c1.356,4.753,0.539,11.68,1.896,16.432c6.957,1.339,14.87,6.264,22.75,6.319
		c7.878,0.055,15.116-5.663,23.383-5.687c0.963-8.728,1.977-17.404,2.527-26.543c-22.961-1.477-48.661-0.211-72.675-0.633
		c-1.675-21.076-5.048-43.821-5.056-64.459c35.179,0,70.359,0,105.537,0C136.708,81.103,135.935,88.123,135.239,95.222z"/>
	<g>
		<path fill-rule="evenodd" clip-rule="evenodd" fill="#FFFFFF" d="M15.167,0c3.581,0,7.162,0,10.743,0c0,3.16,0,6.319,0,9.479
			c2.122,1.46,6.94,0.222,10.112,0.631c0-3.37,0-6.74,0-10.111c3.582,0,7.162,0,10.744,0c0,10.532,0,21.066,0,31.598
			c-2.464,1.329-7.268,0.317-10.744,0.632c0-3.371,0-6.741,0-10.111c-2.122-1.46-6.94-0.221-10.112-0.632c0,3.581,0,7.163,0,10.743
			c-3.581,0-7.162,0-10.743,0C15.167,21.487,15.167,10.743,15.167,0z"/>
		<path fill-rule="evenodd" clip-rule="evenodd" fill="#FFFFFF" d="M51.189,0c9.9,0,19.801,0,29.701,0c0,3.581,0,7.163,0,10.743
			c-3.16,0-6.319,0-9.479,0c0,7.163,0,14.325,0,21.487c-3.581,0-7.162,0-10.744,0c0-6.952,0-13.903,0-20.854
			c-1.911-1.458-6.518-0.223-9.479-0.632C51.189,7.163,51.189,3.581,51.189,0z"/>
		<path fill-rule="evenodd" clip-rule="evenodd" fill="#FFFFFF" d="M85.315,0c4.003,0,8.004,0,12.007,0
			c1.188,4.288,4.56,6.395,5.688,10.743c3.278-2.621,4.86-6.936,6.952-10.743c4.003,0,8.004,0,12.007,0c0,10.532,0,21.066,0,31.598
			c-2.463,1.329-7.268,0.317-10.744,0.632c0-5.056,0-10.111,0-15.167c-3.045,0.545-4.348,8.285-8.215,10.111
			c-2.221-3.466-3.8-7.575-6.951-10.111c0,5.056,0,10.111,0,15.167c-3.477-0.315-8.28,0.696-10.743-0.632
			C85.315,21.066,85.315,10.532,85.315,0z"/>
		<path fill-rule="evenodd" clip-rule="evenodd" fill="#FFFFFF" d="M127.024,0c3.58,0,7.162,0,10.743,0c0,7.163,0,14.324,0,21.487
			c5.056,0,10.112,0,15.168,0c0,3.581,0,7.163,0,10.743c-8.637,0-17.274,0-25.911,0C127.024,21.487,127.024,10.743,127.024,0z"/>
	</g>
</g>
</svg>
