<?xml version="1.0" encoding="utf-8"?>
<!-- Generator: Adobe Illustrator 15.0.0, SVG Export Plug-In . SVG Version: 6.00 Build 0)  -->
<!DOCTYPE svg PUBLIC "-//W3C//DTD SVG 1.1//EN" "http://www.w3.org/Graphics/SVG/1.1/DTD/svg11.dtd">
<svg version="1.1" id="Layer_1" xmlns="http://www.w3.org/2000/svg" xmlns:xlink="http://www.w3.org/1999/xlink" x="0px" y="0px"
	 width="804.148px" height="183.258px" viewBox="0 0 804.148 183.258" enable-background="new 0 0 804.148 183.258"
	 xml:space="preserve">
<path fill="#FFFFFF" d="M360.857,111.221c5.442,0.273,10.069,0.543,15.511,1.089c-2.177,8.163-4.082,15.783-6.259,23.132
	c-0.543,1.359-2.721,2.992-4.353,2.992c-26.669,0-53.064,0.543-79.731-0.544c-23.948-1.089-39.729-18.231-39.458-44.356
	c0.271-24.49,6.259-47.076,20.681-66.398c20.137-26.94,61.5-34.285,89.799-16.326c15.51,9.797,22.042,25.307,19.865,42.995
	c-1.905,14.694-7.075,29.119-11.156,43.539C364.94,101.426,363.035,105.507,360.857,111.221z M313.236,110.678
	c4.626,0,9.252,0.271,13.606-0.272c2.176-0.272,5.171-1.905,5.714-3.538c4.626-17.145,9.796-34.559,13.062-51.977
	c1.904-9.251-1.905-18.229-11.158-23.129c-11.428-5.985-29.388-3.535-38.369,5.988c-14.149,15.509-18.232,34.559-16.328,54.696
	c1.088,11.7,8.709,17.688,20.682,17.96C304.8,110.948,308.884,110.678,313.236,110.678z"/>
<path fill="#FFFFFF" d="M589.71,113.126c-1.635,8.162-2.721,15.51-4.354,22.857c-0.272,1.089-2.178,2.993-3.539,2.721
	c-20.407-0.271-40.817,0.272-61.225-1.903c-16.872-1.633-25.037-11.975-25.581-28.573c-0.542-19.32,3.811-38.097,13.336-54.969
	c9.795-17.142,26.123-23.4,44.627-24.762c7.617-0.543,15.237,0,22.854,1.089c17.146,2.994,25.854,14.421,24.765,32.926
	c-0.543,8.981-2.721,17.688-4.082,26.396c-0.543,3.81-2.72,4.897-6.259,4.897c-19.049-0.271-37.823,0-56.873,0
	c-3.535,0-7.891-1.36-8.979,3.812c-0.816,4.895,0.543,9.795,5.444,11.427c4.896,1.905,10.338,2.993,15.51,3.267
	c12.517,0.544,24.763,0,37.278,0.271C584.812,112.854,586.716,113.126,589.71,113.126z M549.708,72.308c5.442,0,10.612,0,16.054,0
	c3.81,0,6.26-2.448,5.171-5.715c-1.089-3.81-3.265-8.163-6.258-10.068c-10.884-6.531-27.485-1.359-33.198,9.796
	c-2.45,4.625-1.632,5.987,3.264,5.987C539.64,72.308,544.538,72.308,549.708,72.308z"/>
<path fill="#FFFFFF" d="M440.859,137.617c-8.706,0-17.688,0.544-26.395,0c-16.872-1.09-26.668-12.519-26.396-29.662
	c0-20.952,7.075-40.545,10.34-60.682c0.545-3.81,1.905-7.893,2.449-11.703c0.545-3.81,2.177-5.442,5.987-5.169
	c5.987,0.273,12.245,0,18.232,0c3.811,0,4.897,1.089,4.081,5.169c-4.081,19.32-7.619,38.916-11.43,58.234
	c-0.543,2.722-0.816,5.444-0.543,7.893c0.543,6.258,3.81,10.066,10.067,10.339c6.261,0.545,12.519,0.817,18.777,0
	c1.902-0.272,4.626-3.266,5.169-5.44c4.898-22.315,9.796-44.628,14.421-67.215c1.906-9.251,1.906-9.251,11.431-9.522
	c4.355,0,8.709,0,13.062,0c4.082-0.272,5.441,1.088,4.626,5.442c-7.075,32.381-14.149,64.764-20.953,97.146
	c-0.816,3.81-2.448,5.171-5.988,5.171C458.82,137.617,449.841,137.617,440.859,137.617L440.859,137.617z"/>
<path fill="#FFFFFF" d="M684.406,63.602c10.069,0,19.594-0.274,29.117,0.271c1.089,0,2.993,2.178,3.539,3.809
	c1.359,4.354,2.448,8.707,3.81,14.693c4.626-6.53,8.161-11.699,11.7-16.871c10.611-15.511,21.224-31.293,32.109-46.804
	c1.089-1.634,3.267-4.082,4.899-4.082c10.884-0.271,21.497-0.271,34.014-0.271c-7.074,9.523-13.607,17.958-19.866,26.395
	c-16.871,22.584-34.56,44.628-50.886,67.757c-4.354,6.259-5.985,14.695-7.619,22.314c-1.36,5.713-3.811,7.347-9.253,7.075
	c-7.89-0.547-15.78,0-24.489,0c1.632-6.26,2.722-11.431,4.083-16.328c1.633-5.987,1.633-11.699-0.273-17.96
	c-3.537-11.157-6.53-22.586-9.795-34.014C685.225,67.954,684.95,66.321,684.406,63.602z"/>
<path fill="#FFFFFF" d="M714.612,56.525c-14.151,0-27.213,0-40.274,0c-6.529,0-13.062,0.273-19.592,0
	c-4.898-0.272-7.076,1.36-8.164,6.531c-4.626,22.858-9.523,45.444-14.148,68.303c-1.09,4.897-2.995,7.075-8.166,6.803
	c-7.075-0.544-13.879,0-21.769,0c4.627-22.042,9.252-42.995,13.878-64.22c2.721-12.79,5.715-25.579,8.163-38.641
	c0.543-3.265,2.178-4.626,5.17-4.626c21.771,0,43.54,0,65.31,0.271c9.524,0,14.15,4.354,16.599,13.606
	C712.707,48.089,713.523,51.899,714.612,56.525z"/>
<path fill="#FFFFFF" d="M235.411,63.873c-4.082,18.777-7.892,36.192-11.702,53.608c-2.449,11.43-5.17,23.129-7.891,34.559
	c-0.543,1.904-1.088,4.083-1.906,5.986c-7.618,18.232-16.054,23.945-35.918,23.945c-6.258,0-12.517,0-19.593,0
	c2.177-8.977,3.538-16.598,5.715-24.217c0.271-1.362,2.721-2.448,4.354-2.724c13.062-1.358,17.687-4.896,20.681-17.958
	c2.722-11.974,5.17-23.946,7.619-35.646c2.177-11.159,4.626-22.043,7.348-32.927c0.544-1.633,2.177-4.081,3.537-4.355
	C216.635,63.873,225.614,63.873,235.411,63.873z"/>
<path fill="#FFFFFF" d="M133.366,123.738c-21.77,34.833-74.561,37.281-105.309,11.43C-3.237,109.043-8.135,64.962,12.273,44.279
	c-6.259,17.144-1.904,32.655,4.898,47.078c7.076,14.694,18.232,25.849,31.838,34.558C73.5,141.428,109.964,142.514,133.366,123.738z
	"/>
<path fill="#FFFFFF" d="M136.359,88.363c-14.422,22.042-49.798,23.673-69.391,10.886C40.301,81.56,37.309,50.811,47.92,33.938
	c-1.633,24.492,8.436,42.18,27.484,54.425C94.725,100.608,114.862,102.511,136.359,88.363z"/>
<path fill="#FFFFFF" d="M207.11,55.709c1.904-8.164,2.994-15.24,5.17-21.771c0.544-1.632,3.265-3.81,5.17-3.81
	c6.802-0.543,13.605,0,20.68-0.271c3.539,0,4.899,0.816,4.082,4.626c-1.36,5.713-2.176,11.701-3.809,17.143
	c-0.273,1.632-2.178,3.81-3.539,3.81C225.887,55.709,216.907,55.709,207.11,55.709z"/>
<path fill="#FFFFFF" d="M79.758,26.592c3.266,26.667,28.845,42.177,50.342,35.375c-10.612,8.979-25.307,8.979-38.369-0.272
	C79.758,53.532,74.044,36.387,79.758,26.592z"/>
</svg>
