<?xml version="1.0" encoding="utf-8"?>
<!-- Generator: Adobe Illustrator 20.0.0, SVG Export Plug-In . SVG Version: 6.00 Build 0)  -->
<svg version="1.1" id="Layer_1" xmlns="http://www.w3.org/2000/svg" xmlns:xlink="http://www.w3.org/1999/xlink" x="0px" y="0px"
	 viewBox="0 0 183.1 229.5" style="enable-background:new 0 0 183.1 229.5;" xml:space="preserve">
<style type="text/css">
	.st0{fill:#FFFFFF;}
</style>
<path class="st0" d="M48,86.8c-2.5-1.9-4.6-3.4-6.6-4.9c-5.1-3.8-10.4-7.2-15.2-11.4c-3.4-3-6.4-6.7-8.9-10.5
	c-3.2-4.6-3.2-9.9-1.3-15.1c2.5-7,6.9-12.7,12.4-17.6C43.7,13.6,61.5,4.6,81.8,0.9c8.3-1.5,16.6-1.1,24.6,1.8
	c12.1,4.3,16.8,13.7,12.8,25.8c-3.7,11.2-11.4,19-21.9,23.9c-9.5,4.4-19.6,6.4-30.1,5.1c-4.6-0.6-8.6-2.3-11.6-5.8
	c-1-1.2-1.6-2.8-2.5-4.4c0.9-0.1,1.2-0.2,1.3-0.1c6.8,6.6,14.9,6.4,23.4,4.6c11.4-2.4,21.3-7.5,28.7-16.7c2.8-3.4,4.8-7.2,5.4-11.7
	c0.7-5-1.2-8.7-5.7-10.9C101,9.9,95.4,9.3,89.8,9.8C68.8,12,51,21.3,35.5,35.3c-3.9,3.6-6.8,7.9-8.2,13.2
	c-1.3,5.3-0.6,10.2,2.9,14.3c3.1,3.6,6.7,6.8,10.3,9.9c3.9,3.4,7.9,6.6,11.9,9.8c0.6,0.5,1.9,0.7,2.5,0.4c5-2.6,9.9-5.3,14.8-8.1
	c0.8-0.5,1.4-1.3,2.1-2.1c3.1-3.5,6.5-6.6,11.1-8c4.4-1.4,7,0.3,7.5,5c0.2,1.6,0,3.2,0,4.9c0.4,0,0.6,0.1,0.9,0
	c3.7-1,5.1,0.3,4.2,3.9c-1.1,4.6-2.4,9.1-3.5,13.7c-0.5,2.1-0.4,4.3-0.6,6.4c0.3,0.1,0.6,0.1,1,0.2c0.5-0.7,1.1-1.4,1.4-2.2
	c5.2-12,10.4-24,15.7-36c0.4-0.9,1.3-1.6,2.1-2.1c0.6-0.4,1.4-0.3,2.1-0.4c5.7-0.5,6.2,0.1,4.6,5.4c-1.6,5.4-1,10.5,2,15.6
	c0.6-0.6,1-0.9,1.3-1.4c3.9-7,8.6-13.7,10.3-21.7c0.4-1.8,1.5-2.6,3.2-2.8c1.2-0.1,2.3-0.3,3.5-0.3c3.5,0,4.1,0.8,2.9,4
	c-2.5,6.9-1.3,13.3,2.3,18.6c5.8-0.9,11.2-2,16.6-2.4c5.4-0.4,10.6,1.1,15.1,4.4c4.9,3.6,7.7,8.3,7.3,14.6c-0.3,4.6-4.4,8.9-8.8,9
	c0.7-0.6,1.2-1.1,1.8-1.5c4.8-3.7,5.5-8.6,2.1-13.6c-2.3-3.4-5.6-5.4-9.4-6.6c-7.5-2.3-14.9-2.3-22.4,0.6c0.2,0.8,0.2,1.4,0.4,2
	c1.8,6.6,0.6,10.5-5.1,14.4c-2.5,1.7-5.4,2.9-8.3,3.9c-2.9,1-5-0.7-5-3.9c0-5.6,3.1-9.8,7-13.3c2.3-2.1,2.6-3.7,1.1-6.4
	c-1.3-2.3-1.7-5.1-2.6-7.7c-0.2-0.6-0.4-1.3-0.8-2.4c-2.4,4.1-4.5,7.8-6.6,11.5c-0.5,0.8-0.9,1.6-1.5,2.3c-2,2.2-2.1,4.5-1.2,7.4
	c2.2,6.9-0.3,12.4-6.8,15.5c-3,1.4-6.3,2-9.6,2.6c-1.2,0.2-3.4-0.5-3.7-1.4c-0.4-1.1,0.2-3,1-4.1c2.9-3.9,6.1-7.6,9.2-11.4
	c1.4-1.6,1.6-3,0.6-5.1c-1.7-3.7-2.9-7.7-4.5-12c-0.5,1.2-1,2.1-1.4,3c-4.4,9.1-8.8,18.2-13.3,27.3c-0.9,1.8-2.3,3.5-3.9,4.8
	c-2.6,2.3-5.7,1.5-6.5-1.9c-0.7-2.8-0.6-5.9-1-9.2c-0.5,0.8-0.9,1.4-1.2,1.9c-1.5,3.1-3,6.2-4.5,9.2c-2.2,4.5-8.5,4.9-11.2-0.3
	c-3.3-6.5-3.5-13.2-2-20.1c0.3-1.4,0.6-2.8,1.2-5.1c-3.6,2.1-6.5,3.7-9.3,5.5c-0.4,0.2-0.2,1.6,0,2.4c4.7,14.5-2.6,30-16.9,35.1
	c-3,1.1-6.4,1.5-9.6,1.5c-7.3-0.2-11.4-5.2-10.7-12.6c0.5-4.8,2.5-8.8,5.9-12.2c5.5-5.4,12-9.3,18.7-12.9
	C45.6,88.1,46.5,87.6,48,86.8z M51.5,89.9c-7.6,4.9-15.5,8.9-20,16.9c-0.6,1-1,2.1-1.2,3.3c-0.5,2.2-1.1,4.9,1,6.2
	c1.6,1,4.2,1.2,6.1,0.7c7.7-2.3,12.4-7.8,14.6-15.4C53,97.8,52.9,94.1,51.5,89.9z M72.3,94c0.1,0.8-0.1,2.1,0.3,3.3
	c0.4,1.3,1.3,2.6,2,3.8c1-1,2.3-1.8,2.8-2.9c2.1-4.7,4.1-9.4,5.9-14.2c1.3-3.4,2.2-6.9,3.1-10.3c0.2-0.8,0-2.4-0.4-2.6
	c-0.8-0.4-2.1-0.2-3,0.2c-1.3,0.7-2.6,1.7-3.5,2.9C75.1,79.8,72.5,86.2,72.3,94z M133.7,95.5c5.4-0.7,8.9-7.1,6.4-11.6
	C136.4,86.2,133.1,92.2,133.7,95.5z M117.8,91.1c-3,3.5-5.7,6.7-8.7,10.1C113.7,100.9,118.2,95.7,117.8,91.1z"/>
<path class="st0" d="M45.4,206.1c-0.3,2.1-0.5,4.2-1.1,6.2c-0.2,0.7-1.5,1.5-2.2,1.5c-8.8,0.1-13.4-4.3-13.5-13.3
	c-0.1-14.4,0-28.8,0-43.2c0-1.2,0-2.3,0-3.5c-8.6-1.7-11.9,0.9-11.7,8c0.1,4.2,0.1,8.3,0,12.5c-0.1,5-0.9,9.8-6,12.9
	c5.9,4,6,9.8,6,15.7c0,3.8-0.1,7.6,0,11.4c0.1,4.3,1.8,6.4,6.1,6.9c2.3,0.3,3.2,1.1,2.9,3.4c-0.2,1.5,0,3,0,4.8
	c-2.6-0.2-4.8-0.3-7-0.7c-7.6-1.5-10.6-4.9-11.1-12.8c-0.3-5.1-0.2-10.1-0.3-15.2c-0.1-5.9-1.8-8.2-7.6-9.7c0-2.3,0-4.7,0-7.1
	c6.6-2.6,7.5-4,7.6-11.3c0-4.8,0-9.6,0.3-14.4c0.5-7.8,4.5-12,12.3-12.6c5.4-0.4,10.8-0.2,16.3-0.4c2.1-0.1,2.2,1.1,2.2,2.8
	c0,16.3,0,32.6,0,48.9C38.6,203.2,39.1,203.9,45.4,206.1z"/>
<path class="st0" d="M56.5,193.6c0,6.3,3.7,10.7,9.7,11.7c2.6,0.4,5.2,0.4,7.8,0.2c2.6-0.2,5.1-0.9,8.2-1.5c0.3,2.2,0.8,4.4,1,6.7
	c0,0.5-0.8,1.4-1.3,1.6c-8,2.4-16,3.2-23.9-0.1c-4.4-1.8-7.7-4.8-9.6-9.2c-3.6-8.5-3.7-17.1,0.5-25.4c5-9.8,17.9-13.6,27.6-8.6
	c4.7,2.4,7.7,6.4,8.8,11.5c0.7,3.5,0.8,7.1,1.2,10.7c0.2,2-0.7,2.5-2.5,2.4c-8.1-0.1-16.3,0-24.4,0
	C58.6,193.6,57.6,193.6,56.5,193.6z M56.6,186.2c6.6,0,13.1,0,19.5,0c0.8-5.7-3.1-10.6-8.3-10.9C61.4,174.9,56.5,179.6,56.6,186.2z"
	/>
<path class="st0" d="M152,229.4c0-2.9,0-5.2,0-7.6c0.6-0.1,1.1-0.3,1.6-0.4c5.9-0.9,7.3-2.6,7.4-8.6c0-3.8,0-7.6,0-11.4
	c-0.1-5.4,0.5-10.5,6-14.1c-6.3-4-6-10.1-6-16.1c0-3.2,0-6.3,0-9.5c-0.1-5.9-1.6-7.6-7.5-8.5c-0.4-0.1-0.9-0.2-1.5-0.3
	c0-2.3,0-4.6,0-6.9c9.1-2.6,17.6,3.3,18,12.6c0.2,5.1,0.1,10.1,0.1,15.2c0.1,5.6,1.5,7.6,6.7,9.8c0.6,0.2,1.1,1.1,1.2,1.7
	c0.2,0.9,0,2,0.1,3c0.2,1.9-0.1,3.1-2.5,3.5c-3,0.5-4.6,2.9-5,5.8c-0.4,2.8-0.4,5.6-0.4,8.4c-0.1,3.4,0,6.9-0.1,10.3
	c-0.3,7.1-3.5,11-10.5,12.4C157.2,229,154.7,229.1,152,229.4z"/>
<path class="st0" d="M119.4,169c-0.6,2.7-1.2,5.2-1.6,7c-4.8-0.3-9.2-0.7-13.7-0.6c-2.2,0-4.2,1.4-4.5,3.9c-0.3,2.3,1,4,3,5
	c1.6,0.8,3.3,1.5,4.9,2.2c2.6,1.1,5.2,2.2,7.7,3.4c5.1,2.7,6.9,7.2,6.4,12.7c-0.6,6.1-4.2,9.7-11.2,11c-6.6,1.2-13.1,0.9-19.6-1.1
	c-1.7-0.5-2.1-1.3-1.6-3c0.6-1.8,0.8-3.7,1.3-5.8c2.3,0.6,4.4,1.4,6.6,1.7c3.3,0.4,6.7,0.5,10,0.4c2.2-0.1,4.1-1.1,4.6-3.5
	c0.5-2.4-0.7-4.1-2.6-5.2c-2.2-1.2-4.6-2.2-6.9-3.2c-1.5-0.7-3-1.2-4.5-1.9c-6.3-3.1-8.5-7.1-7.7-14c0.5-5,4.2-8.7,10.2-10.3
	C106.5,166,112.8,167.1,119.4,169z"/>
<path class="st0" d="M153.5,169.2c-0.6,2.6-1.2,5-1.6,7c-4.4-0.3-8.5-0.7-12.6-1c-0.9,0-1.8,0.3-2.6,0.6c-3.5,1.4-4.1,5.2-1.2,7.6
	c1.4,1.1,3.1,1.8,4.7,2.6c2.5,1.1,5,2,7.5,3.2c6.6,3.2,8.9,7.5,7.9,14.4c-0.8,5.5-4.7,9.1-11.4,10.2c-6.4,1.1-12.8,0.8-19-1.1
	c-1.7-0.5-2.4-1.3-1.8-3.1c0.6-1.8,0.9-3.7,1.3-5.4c3.8,0.7,7.4,1.5,11,2c2,0.3,4.2,0,6.2-0.3c2-0.3,4-1.3,3.9-3.5
	c-0.1-1.7-1-3.8-2.2-4.8c-1.8-1.5-4.3-2.3-6.5-3.3c-1.6-0.8-3.4-1.3-5-2.1c-6.5-3.2-8.7-7.1-7.9-14.1c0.6-5.2,4.5-8.9,10.7-10.4
	C140.1,166.3,148.1,167,153.5,169.2z"/>
</svg>
