
<svg version="1.1" id="my-logo" xmlns="http://www.w3.org/2000/svg" xmlns:xlink="http://www.w3.org/1999/xlink" x="0px" y="0px"
	 width="103.958px" height="103.958px" viewBox="0 0 103.958 103.958" enable-background="new 0 0 103.958 103.958"
	 xml:space="preserve">
<g>
	<path d="M51.979,0C23.272,0,0,23.272,0,51.979c0,28.708,23.272,51.979,51.979,51.979c28.708,0,51.979-23.271,51.979-51.979
		C103.958,23.272,80.687,0,51.979,0z M51.979,102.742c-28.035,0-50.762-22.728-50.762-50.764c0-28.035,22.727-50.763,50.762-50.763
		c28.036,0,50.763,22.728,50.763,50.763C102.741,80.015,80.015,102.742,51.979,102.742z"/>
	<path d="M51.979,2.748c-27.189,0-49.23,22.042-49.23,49.23c0,27.19,22.042,49.231,49.23,49.231c27.189,0,49.23-22.041,49.23-49.231
		C101.209,24.79,79.168,2.748,51.979,2.748z M51.979,100.059c-26.553,0-48.079-21.526-48.079-48.08
		C3.9,25.425,25.425,3.9,51.979,3.9c26.554,0,48.08,21.525,48.08,48.079C100.059,78.532,78.532,100.059,51.979,100.059z"/>
	<circle fill="none" stroke="#FFFFFF" stroke-width="2" stroke-miterlimit="10" cx="51.979" cy="51.979" r="44.31"/>
	<path d="M51.823,8.209C27.73,8.209,8.2,27.74,8.2,51.832c0,24.093,19.53,43.624,43.623,43.624
		c24.092,0,43.621-19.531,43.621-43.624C95.444,27.74,75.915,8.209,51.823,8.209z M47.76,58.51h-4.5v14.307l-0.001,5.968H28.876
		v-5.968h6.732V30.662h-6.732v-5.89h25.171c3.289,0,6.578,0.229,9.256,1.454c5.585,2.372,9.181,8.11,9.181,15.301
		c0,7.574-3.979,13.695-10.175,15.837c-1.668,0.607-3.373,0.909-5.197,1.047v-6.56c0.789-0.174,1.523-0.402,2.213-0.685
		c3.443-1.53,5.432-4.972,5.432-9.64c0-4.361-1.759-7.574-4.821-9.181c-1.682-0.918-3.977-1.301-6.579-1.301H43.259v21.193h4.5
		V58.51z M74.767,78.893H49.515v-5.506h0.014v-35.77h5.815v35.486H69.65v-8.048h5.117V78.893z"/>
</g>
</svg>
