<?xml version="1.0" encoding="utf-8"?>
<!-- Generator: Adobe Illustrator 20.0.0, SVG Export Plug-In . SVG Version: 6.00 Build 0)  -->
<svg version="1.1" id="Layer_1" xmlns="http://www.w3.org/2000/svg" xmlns:xlink="http://www.w3.org/1999/xlink" x="0px" y="0px"
	 viewBox="0 0 181.5 333.5" style="enable-background:new 0 0 181.5 333.5;" xml:space="preserve">
<path style="fill:#333333;" d="M23.2,333.5C10.5,333.5,0,323,0,310.3v-287C0,10.5,10.5,0,23.2,0h135c12.8,0,23.3,10.5,23.3,23.3v287
	c0,12.8-10.4,23.2-23.3,23.2H23.2z M110.9,307.1c0-3.1-2.5-5.6-5.5-5.6H76.1c-3,0-5.5,2.5-5.5,5.6v2.3c0,3.1,2.5,5.5,5.5,5.5h29.2
	c3,0,5.5-2.5,5.5-5.5V307.1z M115,24.7c0-1.2-1-2.3-2.3-2.3H68.7c-1.2,0-2.3,1-2.3,2.3v0.9c0,1.3,1,2.3,2.3,2.3h44.1
	c1.3,0,2.3-1,2.3-2.3V24.7z M168.3,50.4H13.2v232.7h155.1V50.4z"/>
</svg>
