<?xml version="1.0" encoding="utf-8"?>
<!-- Generator: Adobe Illustrator 20.0.0, SVG Export Plug-In . SVG Version: 6.00 Build 0)  -->
<svg version="1.1" id="Layer_1" xmlns="http://www.w3.org/2000/svg" xmlns:xlink="http://www.w3.org/1999/xlink" x="0px" y="0px"
	 viewBox="0 0 352 321" style="enable-background:new 0 0 352 321;" xml:space="preserve">
<style type="text/css">
	.st0{fill:#333333;stroke:#333333;stroke-miterlimit:10;}
	.st1{fill:#4F5357;}
	.st2{fill:#FFFFFF;}
	.st3{fill:#8C8C8C;}
	.st4{fill:#E5463E;stroke:#E5463E;stroke-miterlimit:10;}
	.st5{fill:#777777;stroke:#777777;stroke-miterlimit:10;}
	.st6{fill:#E5463E;}
	.st7{fill:#8C8C8C;stroke:#8C8C8C;stroke-miterlimit:10;}
</style>
<path class="st0" d="M351.5,304.4c0,9.2-7.1,16.1-16.5,16.1h-74.2c-9.3,0-18.3-6.8-18.3-16.1V126.9c0-9.2,9-17.4,18.3-17.4H335
	c9.3,0,16.5,8.2,16.5,17.4V304.4z M296.7,294.1c-5.4,0-9.7,4.4-9.7,9.7c0,5.4,4.4,9.7,9.7,9.7c5.4,0,9.7-4.4,9.7-9.7
	C306.4,298.4,302.1,294.1,296.7,294.1z"/>
<g>
	<path class="st1" d="M316.5,125.6c0,0.5-0.4,0.9-0.9,0.9h-33.2c-0.5,0-0.9-0.4-0.9-0.9v-0.2c0-0.5,0.4-0.9,0.9-0.9h33.2
		c0.5,0,0.9,0.4,0.9,0.9V125.6z"/>
</g>
<path class="st2" d="M346.5,286.8c0,0.4-0.3,0.7-0.7,0.7h-95.5c-0.4,0-0.7-0.3-0.7-0.7V139.2c0-0.4,0.3-0.7,0.7-0.7h95.5
	c0.4,0,0.7,0.3,0.7,0.7V286.8z"/>
<path class="st3" d="M295.8,283.5h-42.3v-46h42.3V283.5L295.8,283.5z M342.5,237.5h-42.7v46h42.7V237.5L342.5,237.5z M342.5,142.5
	h-89v29h89V142.5L342.5,142.5L342.5,142.5L342.5,142.5z M342.5,175.5h-89v23h89V175.5L342.5,175.5L342.5,175.5z"/>
<path class="st4" d="M342.5,202.5h-89v31h89V202.5L342.5,202.5z"/>
<path class="st0" d="M18.1,320.5c-11.4,0-17.6-6-17.6-17.4V17C0.5,5.7,6.7,0.5,18.1,0.5h194.4c11.4,0,18,5.1,18,16.5v286.1
	c0,11.4-6.7,17.4-18,17.4H18.1z M122.6,307.8c0-4-3.2-7.2-7.2-7.2s-7.2,3.2-7.2,7.2s3.2,7.2,7.2,7.2S122.6,311.8,122.6,307.8z"/>
<path class="st5" d="M115.5,10.6c0.6,0,1.1,0.5,1.1,1.1s-0.5,1.1-1.1,1.1s-1.1-0.5-1.1-1.1S114.9,10.6,115.5,10.6z"/>
<path class="st2" d="M204.5,293.4c0,0.6-0.5,1.1-1.1,1.1H25.6c-0.6,0-1.1-0.5-1.1-1.1V24.6c0-0.6,0.5-1.1,1.1-1.1h177.8
	c0.6,0,1.1,0.5,1.1,1.1L204.5,293.4L204.5,293.4z"/>
<path class="st6" d="M95.5,94.5h-63v-65h63V94.5z"/>
<path class="st4" d="M83.5,151.5h-51v51h51V151.5z"/>
<path class="st7" d="M110.5,209.5h-78v78h78V209.5z"/>
<path class="st7" d="M140.5,151.5h-49v51h49V151.5z"/>
<path class="st4" d="M199.5,151.5h-52v51h52V151.5z"/>
<path class="st7" d="M199.5,29.5h-97v30h97V29.5z"/>
<path class="st6" d="M199.5,65.5h-97v29h97V65.5z"/>
<path class="st7" d="M199.5,101.5h-167v43h167V101.5z"/>
<path class="st6" d="M199.5,236.5h-10v10h10V236.5z M150.5,209.5h-34v9h34V209.5z M199.5,209.5h-43v9h43V209.5z M171.5,223.5h-55v10
	h55V223.5z M199.5,223.5h-22v10h22V223.5z M137.5,236.5h-21v10h21V236.5z M181.5,236.5h-38v10h38V236.5z M199.5,251.5h-83v8h83
	V251.5z M156.5,264.5h-40v11h40V264.5z M199.5,264.5h-36v11h36V264.5z M199.5,279.5h-83v8h83V279.5z"/>
</svg>
