<?xml version="1.0" encoding="utf-8"?>
<!-- Generator: Adobe Illustrator 20.0.0, SVG Export Plug-In . SVG Version: 6.00 Build 0)  -->
<svg version="1.1" id="Layer_1" xmlns="http://www.w3.org/2000/svg" xmlns:xlink="http://www.w3.org/1999/xlink" x="0px" y="0px"
	 viewBox="0 0 229.5 229.2" style="enable-background:new 0 0 229.5 229.2;" xml:space="preserve">
<style type="text/css">
	.st0{fill:#FFFFFF;}
	.st1{fill:none;stroke:#FFFFFF;stroke-width:5;stroke-miterlimit:10;}
</style>
<g>
	<path class="st0" d="M120.3,17.5c2,0.3,4.1,0.6,6.1,0.9c9.8,1.3,19.1,4.3,28,8.6c8.1,3.9,15.6,8.9,22.6,14.6
		c0.1,0.1,0.2,0.2,0.4,0.5c-0.4,0.1-0.7,0.2-1,0.1c-3.5-0.5-6.9,0.3-10.1,1.6c-6,2.4-10.4,6.5-13,12.6c-3.5,8.1-1.5,18,5.1,23.8
		c1.8,1.6,4,3,5.9,4.5c4.2,3.4,6.6,8,8.4,12.9c1.9,5,2.9,10.3,2.8,15.6c-0.1,2.6-0.5,5.4-1.5,7.8c-2.8,7.3-5.9,14.5-9.1,21.7
		c-1.9,4.4-4.1,8.7-6.2,13c-2.1,4.3-4.3,8.6-6.6,13.2c-1.1-3.7-2.1-7.1-3.1-10.5c-2.6-9.1-5.2-18.2-7.9-27.2
		c-2.9-9.9-5.8-19.7-8.6-29.6c-1.5-5.2-3.3-10.3-3.7-15.8c-0.3-3.6,0.9-6.5,3.5-8.8c0.7-0.6,1.9-0.9,2.8-1c2.8-0.1,5.7-0.1,8.5,0
		c1,0,1.4-0.3,1.3-1.4c-0.1-1.9-0.1-3.7,0-5.6c0.1-1.5-0.5-1.8-1.9-1.8c-14.3,0-28.5,0-42.8,0c-4,0-8,0-11.9,0
		c-1.2,0-1.7,0.3-1.6,1.6c0.1,2,0.1,3.9,0,5.9c0,0.9,0.3,1.2,1.2,1.3c0.8,0.1,1.7,0.2,2.3,0.7c2.4,1.8,4.5,4,5.7,6.8
		c4.3,9.9,7.6,20.2,10.6,30.6c1.1,3.8,2.3,7.6,3.5,11.4c0.4,1.1,0.3,2.1-0.2,3.3c-5.8,13.2-11.5,26.4-17.2,39.6
		c-0.1,0.1-0.1,0.2-0.3,0.5c-0.4-1.7-0.8-3.1-1.2-4.6c-3.8-16.2-7.7-32.5-11.5-48.7c-2.3-9.9-4.9-19.8-7-29.7
		c-0.7-3.3,0.5-8.6,4.8-9.9c0.3-0.1,0.6-0.7,0.7-1c0.1-2.2,0-4.3,0-6.5c0-1.2-0.7-1.2-1.5-1.2c-3.9,0-7.9,0-11.8,0
		c-11.3,0-22.6,0-34,0c-0.6,0-1.1,0-2.1,0c1.4-2.4,2.7-4.5,4-6.6c5.6-8.7,12.6-16.3,20.7-22.6c9.8-7.7,20.8-13.2,32.8-16.6
		c6.8-1.9,13.7-3.1,20.7-3.7c0.6-0.1,1.2-0.2,1.8-0.3C112.7,17.5,116.5,17.5,120.3,17.5z"/>
	<path class="st0" d="M108.8,211.7c-3.6-0.5-7.3-1-10.9-1.5c-1.9-0.3-3.8-0.7-6-1.2c8.2-20.1,16.4-40.1,24.7-60.5
		c7.3,20.3,14.4,40.2,21.6,60.3c-2.3,0.5-4.4,1-6.5,1.3c-3.7,0.6-7.4,1-11.2,1.6C116.7,211.7,112.8,211.7,108.8,211.7z"/>
	<path class="st0" d="M76.6,203c-3.7-1.9-7.6-3.7-11.2-5.9c-13.6-8.1-24.7-18.7-33-32.2c-7.6-12.3-12.3-25.6-13.8-40
		c-1.7-16,0.3-31.5,5.9-46.6c0.6-1.7,1.5-2.2,3.3-2.3c4.9-0.3,8.6,1.6,11.5,5.1c1.1,1.3,1.5,3.1,2.1,4.8c2.1,6.6,4,13.2,6,19.9
		c4,13.2,8.1,26.4,12.1,39.5c5.1,16.7,10.2,33.4,15.3,50.1c0.7,2.4,1.5,4.8,2.2,7.2C76.8,202.7,76.7,202.8,76.6,203z"/>
	<path class="st0" d="M154.7,202.7c0.9-2.2,1.9-4.4,2.8-6.7c5.1-12.2,10.3-24.4,15.2-36.6c4.4-10.9,8.9-21.8,13-32.8
		c4-10.9,7.9-21.8,11.2-33c2.5-8.5,3-17.3,1.3-26.1c6.7,6.3,13.8,33.4,13.2,50.9c-0.6,18.3-5.9,35.1-16.2,50.3
		C185.1,184,171.6,195.3,154.7,202.7z"/>
</g>
<circle class="st1" cx="114.7" cy="114.6" r="112.1"/>
</svg>
